<svg xmlns="http://www.w3.org/2000/svg" width="293.57" height="300.46" viewBox="0 0 293.57 300.46">
  <g id="XMLID_1326_" transform="translate(-3.445)">
    <g id="Grupo_2" data-name="Grupo 2">
      <g id="Grupo_1" data-name="Grupo 1">
        <path id="Caminho_1" data-name="Caminho 1" d="M130.631,116.5a5.272,5.272,0,0,0-4.42-2.4H79.26V103.011a7.867,7.867,0,0,0-15.734,0V150.9H16.573a5.272,5.272,0,0,0-4.42,2.4L3.7,166.3a1.549,1.549,0,0,0,0,1.689l8.457,13a5.272,5.272,0,0,0,4.42,2.4H63.525V284.726H48.89a7.867,7.867,0,0,0,0,15.734H93.9a7.867,7.867,0,0,0,0-15.734H79.26V146.594h46.951a5.272,5.272,0,0,0,4.42-2.4l8.457-13a1.549,1.549,0,0,0,0-1.689Z" fill="#FFF"/>
        <circle id="Elipse_1" data-name="Elipse 1" cx="23.08" cy="23.08" r="23.08" transform="translate(203.172 17.34)" fill="#FFF"/>
        <path id="Caminho_2" data-name="Caminho 2" d="M256.05,73.565H204.581l-24.386-2.851,13.127-15.771A11.136,11.136,0,1,0,176.2,40.694L149.93,72.264a11.136,11.136,0,0,0,7.265,18.185l39.291,4.594.005,192.054a13.363,13.363,0,1,0,26.726,0V180.284h5.77V287.1a13.363,13.363,0,0,0,26.726,0l-.237-187.114a2.329,2.329,0,0,1,4.656-.086h0l.411,81.812a11.136,11.136,0,0,0,11.135,11.08h.057a11.137,11.137,0,0,0,11.08-11.192L282.4,99.785A26.412,26.412,0,0,0,256.05,73.565Z" fill="#FFF"/>
        <rect id="Retângulo_19" data-name="Retângulo 19" width="9.608" height="10.165" transform="translate(274.453 34.401)" fill="#FFF"/>
        <path id="Caminho_3" data-name="Caminho 3" d="M283.5,0c-5.687,0-10.767,2.717-13.016,7.995l7.5,5.331c.855-.995,2.018-3.843,5.083-3.843,1.868,0,3.719,1.091,3.719,3.1,0,3.5-5.852,5.85-7.624,6.818-4.459,2.316-4.9,5.458-4.9,9.112h9.608c0-1.408,1.28-2.327,2.758-3.161,4.231-2.387,10.382-4.021,10.382-12.706C297.014,4.314,290.919,0,283.5,0Z" fill="#FFF"/>
      </g>
    </g>
  </g>
</svg>
